<svg width="24" height="24" viewBox="0 0 24 24" fill="none" xmlns="http://www.w3.org/2000/svg">
  <path d="M7 18C5.9 18 5.01 18.9 5.01 20C5.01 21.1 5.9 22 7 22C8.1 22 9 21.1 9 20C9 18.9 8.1 18 7 18ZM17 18C15.9 18 15.01 18.9 15.01 20C15.01 21.1 15.9 22 17 22C18.1 22 19 21.1 19 20C19 18.9 18.1 18 17 18ZM7.17 14.75L7.2 14.63L8.1 13H15.55C16.3 13 16.96 12.59 17.3 11.97L21.16 5.96C21.26 5.81 21.39 5.67 21.39 5.46C21.39 5.13 21.13 4.87 20.8 4.87H5.21L4.27 2.89C4.15 2.65 3.91 2.5 3.64 2.5H1.7C1.32 2.5 1 2.82 1 3.2C1 3.58 1.32 3.9 1.7 3.9H3.07L6.16 11.13L4.8 13.4C4.4 14.17 4.94 15 5.8 15H18.6C18.98 15 19.3 14.68 19.3 14.3C19.3 13.92 18.98 13.6 18.6 13.6H7.17V14.75Z" fill="currentColor"/>
</svg>